#!OML:ASF F:\VICON\USERDATA\INSTALL\rory3\rory3.ASF
:FULLY-SPECIFIED
:DEGREES
951
root -0.650382 21.6012 5.10721 -0.851588 4.28791 3.27301
lowerback 4.65547 0.154307 -4.26676
upperback 1.91285 0.0399381 1.69746
thorax -0.642798 -0.00186397 4.1473
lowerneck -13.2847 1.73684 -9.54707
upperneck 41.647 5.87778 0.485261
head 17.2836 1.01104 2.98635
rclavicle 3.13086e-015 7.95139e-016
rhumerus -31.5423 -8.20675 -77.4096
rradius 38.6037
rwrist 18.3032
rhand -20.4389 1.7606
rfingers 7.12502
rthumb 5.91605 -28.1368
lclavicle 3.13086e-015 7.95139e-016
lhumerus -36.1614 14.398 79.5497
lradius 27.1289
lwrist -7.01787
lhand -12.4825 27.1483
lfingers 7.12502
lthumb 13.592 56.6846
rfemur -35.3298 -13.2243 17.1348
rtibia 105.688
rfoot -11.8787 7.98636
rtoes -4.45145
lfemur 0.356052 -3.42198 -27.8771
ltibia 2.56682
lfoot 14.0342 -3.65375
ltoes 7.27891
952
root -0.650381 21.5966 5.13383 -0.870277 4.235 3.02562
lowerback 4.97394 0.146702 -4.04824
upperback 1.88996 0.0284194 1.79751
thorax -0.843347 -0.0017783 4.12897
lowerneck -13.4239 1.73912 -9.52345
upperneck 41.6996 5.8864 0.506909
head 17.3479 1.01476 2.99969
rclavicle 1.26228e-014 -1.43125e-014
rhumerus -31.4264 -8.38549 -77.3128
rradius 38.7654
rwrist 18.6988
rhand -20.6509 1.62875
rfingers 7.12502
rthumb 5.71137 -28.2743
lclavicle 1.26228e-014 -1.43125e-014
lhumerus -36.0435 14.4477 79.5942
lradius 26.9525
lwrist -6.96187
lhand -12.4644 27.1869
lfingers 7.12502
lthumb 13.6095 56.722
rfemur -35.9099 -13.1514 17.4677
rtibia 105.487
rfoot -12.4575 7.32151
rtoes -5.9933
lfemur -0.436948 -3.34613 -27.589
ltibia 4.351
lfoot 13.0975 -3.56443
ltoes 7.48936
953
root -0.650722 21.5911 5.16978 -0.877873 4.09769 2.91188
lowerback 5.12159 0.175421 -3.95995
upperback 1.87786 0.0660816 1.84455
thorax -0.942152 0.0197796 4.12609
lowerneck -13.2964 1.73027 -9.48552
upperneck 41.5443 5.84426 0.461544
head 17.2326 1.00854 2.95574
rclavicle -2.18166e-014 8.74653e-015
rhumerus -31.4344 -8.56584 -77.1802
rradius 38.9904
rwrist 19.373
rhand -20.5168 0.968616
rfingers 7.12502
rthumb 5.84091 -28.9309
lclavicle -2.18166e-014 8.74653e-015
lhumerus -35.9695 14.4075 79.6389
lradius 26.7902
lwrist -6.82835
lhand -12.5849 27.0316
lfingers 7.12502
lthumb 13.4933 56.5745
rfemur -36.421 -12.9349 17.6296
rtibia 105.132
rfoot -13.0246 6.59212
rtoes -7.78816
lfemur -1.06113 -3.18122 -27.4576
ltibia 5.88812
lfoot 12.3014 -3.51503
ltoes 8.03237
954
root -0.649135 21.5838 5.20971 -0.914728 3.96711 2.82478
lowerback 5.23828 0.183577 -3.91012
upperback 1.87152 0.0760818 1.90408
thorax -1.01486 0.0265982 4.15948
lowerneck -13.1478 1.73211 -9.50233
upperneck 41.4204 5.83213 0.424884
head 17.1269 1.0056 2.93086
rclavicle 5.06901e-015 -1.11319e-014
rhumerus -31.4365 -8.40054 -77.1881
rradius 39.029
rwrist 18.9381
rhand -20.6519 0.916002
rfingers 7.12502
rthumb 5.71041 -28.9871
lclavicle 5.06901e-015 -1.11319e-014
lhumerus -35.9677 14.5648 79.609
lradius 26.6278
lwrist -7.02357
lhand -12.6971 26.8967
lfingers 7.12502
lthumb 13.3852 56.4467
rfemur -36.7791 -12.73 17.7078
rtibia 104.605
rfoot -13.5373 5.9171
rtoes -9.36569
lfemur -1.50936 -3.01588 -27.3734
ltibia 7.19837
lfoot 11.5458 -3.44889
ltoes 8.36985
955
root -0.648724 21.5761 5.24607 -0.961578 3.91293 2.71764
lowerback 5.45155 0.163917 -3.81423
upperback 1.86199 0.0481489 1.94484
thorax -1.14094 0.0158497 4.14989
lowerneck -13.172 1.71448 -9.54159
upperneck 41.4807 5.77003 0.548199
head 17.1614 0.986344 2.98556
rclavicle -1.93815e-015 1.51076e-014
rhumerus -31.3838 -8.19925 -77.3006
rradius 39.0108
rwrist 18.3557
rhand -21.0092 1.55963
rfingers 7.12502
rthumb 5.36543 -28.3524
lclavicle -1.93815e-015 1.51076e-014
lhumerus -35.9207 14.6864 79.5514
lradius 26.5075
lwrist -7.35923
lhand -12.5732 27.0565
lfingers 7.12502
lthumb 13.5046 56.5986
rfemur -37.1032 -12.5305 17.7973
rtibia 103.908
rfoot -13.8748 5.45548
rtoes -9.44058
lfemur -1.8939 -2.92329 -27.2672
ltibia 8.34131
lfoot 10.8901 -3.34999
ltoes 8.73719
956
root -0.648212 21.5714 5.28427 -0.944813 3.81704 2.68334
lowerback 5.55436 0.173812 -3.7438
upperback 1.87203 0.0619208 1.95517
thorax -1.18939 0.023738 4.12012
lowerneck -13.2307 1.69519 -9.56129
upperneck 41.5341 5.72116 0.632815
head 17.2037 0.970251 3.02271
rclavicle -4.32357e-015 1.82882e-014
rhumerus -31.2621 -8.27716 -77.2835
rradius 39.0532
rwrist 18.6899
rhand -21.8304 2.25745
rfingers 7.12502
rthumb 4.5725 -27.6732
lclavicle -4.32357e-015 1.82882e-014
lhumerus -35.8326 14.6989 79.5707
lradius 26.4652
lwrist -7.52231
lhand -12.308 27.3516
lfingers 7.12502
lthumb 13.7602 56.8766
rfemur -37.4603 -12.2003 17.8068
rtibia 103.023
rfoot -13.814 5.1442
rtoes -8.21167
lfemur -2.32238 -2.79577 -27.236
ltibia 9.36106
lfoot 10.4642 -3.28976
ltoes 8.74367
957
root -0.650965 21.5604 5.32307 -0.91515 3.70979 2.76678
lowerback 5.59063 0.191226 -3.8564
upperback 1.92055 0.0780545 1.95324
thorax -1.16102 0.0300848 4.18097
lowerneck -13.2809 1.70889 -9.44577
upperneck 41.4625 5.76222 0.494187
head 17.1853 0.988335 2.94573
rclavicle 1.13307e-014 -1.03368e-014
rhumerus -31.1473 -8.40824 -77.2336
rradius 39.1861
rwrist 19.3584
rhand -21.9694 2.43271
rfingers 7.12502
rthumb 4.43836 -27.5008
lclavicle 1.13307e-014 -1.03368e-014
lhumerus -35.6993 14.5468 79.6768
lradius 26.4125
lwrist -7.47553
lhand -12.0507 27.492
lfingers 7.12502
lthumb 14.0082 57
rfemur -37.7827 -11.9166 17.6797
rtibia 102.041
rfoot -13.5843 4.89106
rtoes -7.66275
lfemur -2.69586 -2.65362 -27.3227
ltibia 10.2789
lfoot 10.0734 -3.31485
ltoes 8.83903
958
root -0.652601 21.545 5.36373 -0.870044 3.67801 2.88697
lowerback 5.60898 0.186493 -3.99361
upperback 1.95099 0.063681 1.94063
thorax -1.13818 0.0215679 4.24665
lowerneck -13.2807 1.72048 -9.35379
upperneck 41.3394 5.79754 0.351907
head 17.1251 1.00397 2.86711
rclavicle -3.77691e-015 1.03368e-014
rhumerus -31.0375 -8.42408 -77.2489
rradius 39.2237
rwrist 19.4204
rhand -20.9628 1.94908
rfingers 7.12502
rthumb 5.41024 -27.9619
lclavicle -3.77691e-015 1.03368e-014
lhumerus -35.6273 14.3732 79.8039
lradius 26.4913
lwrist -7.39937
lhand -12.1172 27.6106
lfingers 7.12502
lthumb 13.9441 57.123
rfemur -38.0723 -11.6945 17.5052
rtibia 100.921
rfoot -13.1361 4.49834
rtoes -8.05464
lfemur -2.99214 -2.60732 -27.4689
ltibia 11.125
lfoot 9.54035 -3.2479
ltoes 9.03297
959
root -0.652875 21.5326 5.40798 -0.769209 3.61506 3.06077
lowerback 5.55309 0.166544 -4.16151
upperback 1.94744 0.0292884 1.8914
thorax -1.10682 0.00344553 4.29271
lowerneck -13.2511 1.73093 -9.34271
upperneck 41.2682 5.78608 0.375138
head 17.0759 1.0082 2.87011
rclavicle -5.1684e-015 -1.66979e-014
rhumerus -30.9178 -8.20537 -77.3924
rradius 39.0793
rwrist 18.6347
rhand -20.6365 1.5963
rfingers 7.12502
rthumb 5.72534 -28.3063
lclavicle -5.1684e-015 -1.66979e-014
lhumerus -35.6465 14.2416 79.8645
lradius 26.6658
lwrist -7.35122
lhand -12.3122 27.4663
lfingers 7.12502
lthumb 13.7561 56.9916
rfemur -38.4035 -11.3418 17.2241
rtibia 99.6217
rfoot -12.3215 4.11214
rtoes -6.96912
lfemur -3.34063 -2.52924 -27.6737
ltibia 11.9896
lfoot 9.02185 -3.15746
ltoes 9.35928
960
root -0.653344 21.5204 5.45305 -0.734247 3.5445 3.18966
lowerback 5.58394 0.124353 -4.26695
upperback 1.95019 -0.0346577 1.83303
thorax -1.11423 -0.0285022 4.29599
lowerneck -13.2897 1.73847 -9.2976
upperneck 41.2536 5.75481 0.438557
head 17.0752 1.00979 2.88575
rclavicle 9.93923e-017 1.74931e-014
rhumerus -30.878 -8.06111 -77.4977
rradius 39.0675
rwrist 18.5147
rhand -21.2805 1.97553
rfingers 7.12502
rthumb 5.10355 -27.943
lclavicle 9.93923e-017 1.74931e-014
lhumerus -35.6738 14.0645 79.86
lradius 26.8017
lwrist -7.28511
lhand -12.268 26.8912
lfingers 7.12502
lthumb 13.7987 56.4136
rfemur -38.5846 -10.9411 16.9395
rtibia 98.1316
rfoot -11.289 3.78663
rtoes -4.10581
lfemur -3.70561 -2.48776 -27.8221
ltibia 13.0199
lfoot 8.41147 -3.0187
ltoes 9.52336
961
root -0.658739 21.5025 5.49971 -0.836965 3.54373 3.12313
lowerback 5.67493 0.0771701 -4.2397
upperback 2.02205 -0.0983641 1.86876
thorax -1.08397 -0.0626137 4.32211
lowerneck -13.2397 1.748 -9.28175
upperneck 41.1521 5.73679 0.455687
head 17.0049 1.01322 2.88234
rclavicle 8.64713e-015 -2.38542e-015
rhumerus -30.7906 -8.08062 -77.4538
rradius 39.1527
rwrist 19.3531
rhand -21.0423 1.99384
rfingers 7.12502
rthumb 5.33348 -27.919
lclavicle 8.64713e-015 -2.38542e-015
lhumerus -35.5918 13.8693 79.9566
lradius 26.8482
lwrist -7.11709
lhand -12.3315 26.6244
lfingers 7.12502
lthumb 13.7375 56.1509
rfemur -38.4991 -10.6226 16.9482
rtibia 96.4432
rfoot -10.0271 3.04934
rtoes -3.03681
lfemur -3.99517 -2.56714 -27.7422
ltibia 14.1797
lfoot 7.68433 -2.83699
ltoes 9.56562
962
root -0.665573 21.4818 5.54312 -0.892271 3.55344 2.86337
lowerback 5.70862 0.0464394 -4.02697
upperback 2.09233 -0.126911 1.96848
thorax -1.02781 -0.0794107 4.30705
lowerneck -13.1703 1.74027 -9.27149
upperneck 41.0642 5.71769 0.417621
head 16.942 1.00764 2.85511
rclavicle 4.67144e-015 -1.19271e-014
rhumerus -30.7276 -7.95399 -77.5255
rradius 39.0691
rwrist 18.7514
rhand -20.5519 1.82656
rfingers 7.12502
rthumb 5.80696 -28.0739
lclavicle 4.67144e-015 -1.19271e-014
lhumerus -35.4707 13.6203 80.1422
lradius 26.9481
lwrist -7.06016
lhand -12.3259 27.1806
lfingers 7.12502
lthumb 13.7429 56.7067
rfemur -38.4144 -10.2662 17.2577
rtibia 94.6083
rfoot -8.38598 1.89679
rtoes -3.49692
lfemur -4.41537 -2.64887 -27.4408
ltibia 15.4368
lfoot 6.96112 -2.66313
ltoes 9.49207
963
root -0.669721 21.4596 5.58592 -0.819913 3.55371 2.77566
lowerback 5.69354 0.0146424 -3.95937
upperback 2.10713 -0.164238 2.01903
thorax -1.00037 -0.0989981 4.32359
lowerneck -13.2246 1.71376 -9.35092
upperneck 41.0592 5.6892 0.460023
head 16.9507 0.988222 2.88451
rclavicle 1.6201e-014 -2.22639e-014
rhumerus -30.6878 -7.94836 -77.523
rradius 39.1853
rwrist 18.9834
rhand -19.7808 1.39104
rfingers 7.12502
rthumb 6.55145 -28.4876
lclavicle 1.6201e-014 -2.22639e-014
lhumerus -35.4288 13.3989 80.2893
lradius 27.1529
lwrist -7.07119
lhand -12.1601 27.5034
lfingers 7.12502
lthumb 13.9027 57.0187
rfemur -38.4645 -9.9066 17.2996
rtibia 92.7411
rfoot -6.44764 0.853503
rtoes -3.0764
lfemur -5.00723 -2.68638 -27.3356
ltibia 16.7804
lfoot 6.19594 -2.49543
ltoes 9.46298
964
root -0.675084 21.4352 5.6339 -0.800814 3.57342 2.81422
lowerback 5.70947 -0.0290438 -4.01905
upperback 2.11779 -0.226195 2.01663
thorax -0.991378 -0.13061 4.35903
lowerneck -13.2408 1.69594 -9.39715
upperneck 41.0566 5.64838 0.524066
head 16.9505 0.972202 2.91459
rclavicle -1.18277e-014 1.98785e-014
rhumerus -30.6823 -7.88432 -77.5432
rradius 39.3001
rwrist 19.319
rhand -19.7167 1.33596
rfingers 7.12502
rthumb 6.61328 -28.5408
lclavicle -1.18277e-014 1.98785e-014
lhumerus -35.5065 13.0509 80.4005
lradius 27.4788
lwrist -6.8934
lhand -12.0936 27.2506
lfingers 7.12502
lthumb 13.9668 56.7615
rfemur -38.3779 -9.58392 17.1696
rtibia 90.7545
rfoot -4.43063 -0.150017
rtoes -2.39184
lfemur -5.50178 -2.63941 -27.3645
ltibia 18.1144
lfoot 5.4002 -2.39576
ltoes 9.90803
